<svg xmlns="http://www.w3.org/2000/svg" width="1200" height="1500" viewBox="0 0 1200 1500" role="img" aria-label="Buenos Aires">
  <defs>
    <linearGradient id="skybuenosaires" x1="0" y1="0" x2="0" y2="1">
      <stop offset="0" stop-color="#2a3a6c"/>
      <stop offset="0.55" stop-color="#5566a8"/>
      <stop offset="1" stop-color="#b3bfe0"/>
    </linearGradient>
    <linearGradient id="fadebuenosaires" x1="0" y1="0" x2="0" y2="1">
      <stop offset="0.55" stop-color="#000" stop-opacity="0"/>
      <stop offset="1" stop-color="#06182b" stop-opacity="0.78"/>
    </linearGradient>
  </defs>
  <rect width="1200" height="1500" fill="url(#skybuenosaires)"/>
  <circle cx="864" cy="390" r="156" fill="#ffe6a0" opacity="0.95"/>
  <circle cx="864" cy="390" r="216" fill="#ffe6a0" opacity="0.18"/>
  <rect x="0" y="930" width="1200" height="570" fill="#a85285"/><rect x="96" y="822" width="52" height="108" fill="#7a3b6b" opacity="0.92"/><rect x="102" y="832" width="5" height="7" fill="#ffe6a0" opacity="0.7"/><rect x="102" y="848" width="5" height="7" fill="#ffe6a0" opacity="0.7"/><rect x="102" y="864" width="5" height="7" fill="#ffe6a0" opacity="0.7"/><rect x="102" y="880" width="5" height="7" fill="#ffe6a0" opacity="0.7"/><rect x="102" y="896" width="5" height="7" fill="#ffe6a0" opacity="0.7"/><rect x="102" y="912" width="5" height="7" fill="#ffe6a0" opacity="0.7"/><rect x="160" y="740" width="58" height="190" fill="#7a3b6b" opacity="0.92"/><rect x="166" y="750" width="5" height="7" fill="#ffe6a0" opacity="0.7"/><rect x="166" y="766" width="5" height="7" fill="#ffe6a0" opacity="0.7"/><rect x="166" y="782" width="5" height="7" fill="#ffe6a0" opacity="0.7"/><rect x="166" y="798" width="5" height="7" fill="#ffe6a0" opacity="0.7"/><rect x="166" y="814" width="5" height="7" fill="#ffe6a0" opacity="0.7"/><rect x="166" y="830" width="5" height="7" fill="#ffe6a0" opacity="0.7"/><rect x="166" y="846" width="5" height="7" fill="#ffe6a0" opacity="0.7"/><rect x="166" y="862" width="5" height="7" fill="#ffe6a0" opacity="0.7"/><rect x="166" y="878" width="5" height="7" fill="#ffe6a0" opacity="0.7"/><rect x="166" y="894" width="5" height="7" fill="#ffe6a0" opacity="0.7"/><rect x="166" y="910" width="5" height="7" fill="#ffe6a0" opacity="0.7"/><rect x="230" y="730" width="38" height="200" fill="#7a3b6b" opacity="0.92"/><rect x="236" y="740" width="5" height="7" fill="#ffe6a0" opacity="0.7"/><rect x="236" y="756" width="5" height="7" fill="#ffe6a0" opacity="0.7"/><rect x="236" y="772" width="5" height="7" fill="#ffe6a0" opacity="0.7"/><rect x="236" y="788" width="5" height="7" fill="#ffe6a0" opacity="0.7"/><rect x="236" y="804" width="5" height="7" fill="#ffe6a0" opacity="0.7"/><rect x="236" y="820" width="5" height="7" fill="#ffe6a0" opacity="0.7"/><rect x="236" y="836" width="5" height="7" fill="#ffe6a0" opacity="0.7"/><rect x="236" y="852" width="5" height="7" fill="#ffe6a0" opacity="0.7"/><rect x="236" y="868" width="5" height="7" fill="#ffe6a0" opacity="0.7"/><rect x="236" y="884" width="5" height="7" fill="#ffe6a0" opacity="0.7"/><rect x="236" y="900" width="5" height="7" fill="#ffe6a0" opacity="0.7"/><rect x="236" y="916" width="5" height="7" fill="#ffe6a0" opacity="0.7"/><rect x="280" y="830" width="48" height="100" fill="#7a3b6b" opacity="0.92"/><rect x="286" y="840" width="5" height="7" fill="#ffe6a0" opacity="0.7"/><rect x="286" y="856" width="5" height="7" fill="#ffe6a0" opacity="0.7"/><rect x="286" y="872" width="5" height="7" fill="#ffe6a0" opacity="0.7"/><rect x="286" y="888" width="5" height="7" fill="#ffe6a0" opacity="0.7"/><rect x="286" y="904" width="5" height="7" fill="#ffe6a0" opacity="0.7"/><rect x="286" y="920" width="5" height="7" fill="#ffe6a0" opacity="0.7"/><rect x="340" y="800" width="26" height="130" fill="#7a3b6b" opacity="0.92"/><rect x="346" y="810" width="5" height="7" fill="#ffe6a0" opacity="0.7"/><rect x="346" y="826" width="5" height="7" fill="#ffe6a0" opacity="0.7"/><rect x="346" y="842" width="5" height="7" fill="#ffe6a0" opacity="0.7"/><rect x="346" y="858" width="5" height="7" fill="#ffe6a0" opacity="0.7"/><rect x="346" y="874" width="5" height="7" fill="#ffe6a0" opacity="0.7"/><rect x="346" y="890" width="5" height="7" fill="#ffe6a0" opacity="0.7"/><rect x="346" y="906" width="5" height="7" fill="#ffe6a0" opacity="0.7"/><rect x="378" y="756" width="54" height="174" fill="#7a3b6b" opacity="0.92"/><rect x="384" y="766" width="5" height="7" fill="#ffe6a0" opacity="0.7"/><rect x="384" y="782" width="5" height="7" fill="#ffe6a0" opacity="0.7"/><rect x="384" y="798" width="5" height="7" fill="#ffe6a0" opacity="0.7"/><rect x="384" y="814" width="5" height="7" fill="#ffe6a0" opacity="0.7"/><rect x="384" y="830" width="5" height="7" fill="#ffe6a0" opacity="0.7"/><rect x="384" y="846" width="5" height="7" fill="#ffe6a0" opacity="0.7"/><rect x="384" y="862" width="5" height="7" fill="#ffe6a0" opacity="0.7"/><rect x="384" y="878" width="5" height="7" fill="#ffe6a0" opacity="0.7"/><rect x="384" y="894" width="5" height="7" fill="#ffe6a0" opacity="0.7"/><rect x="384" y="910" width="5" height="7" fill="#ffe6a0" opacity="0.7"/><rect x="444" y="798" width="40" height="132" fill="#7a3b6b" opacity="0.92"/><rect x="450" y="808" width="5" height="7" fill="#ffe6a0" opacity="0.7"/><rect x="450" y="824" width="5" height="7" fill="#ffe6a0" opacity="0.7"/><rect x="450" y="840" width="5" height="7" fill="#ffe6a0" opacity="0.7"/><rect x="450" y="856" width="5" height="7" fill="#ffe6a0" opacity="0.7"/><rect x="450" y="872" width="5" height="7" fill="#ffe6a0" opacity="0.7"/><rect x="450" y="888" width="5" height="7" fill="#ffe6a0" opacity="0.7"/><rect x="450" y="904" width="5" height="7" fill="#ffe6a0" opacity="0.7"/><rect x="450" y="920" width="5" height="7" fill="#ffe6a0" opacity="0.7"/><rect x="496" y="722" width="30" height="208" fill="#7a3b6b" opacity="0.92"/><rect x="502" y="732" width="5" height="7" fill="#ffe6a0" opacity="0.7"/><rect x="502" y="748" width="5" height="7" fill="#ffe6a0" opacity="0.7"/><rect x="502" y="764" width="5" height="7" fill="#ffe6a0" opacity="0.7"/><rect x="502" y="780" width="5" height="7" fill="#ffe6a0" opacity="0.7"/><rect x="502" y="796" width="5" height="7" fill="#ffe6a0" opacity="0.7"/><rect x="502" y="812" width="5" height="7" fill="#ffe6a0" opacity="0.7"/><rect x="502" y="828" width="5" height="7" fill="#ffe6a0" opacity="0.7"/><rect x="502" y="844" width="5" height="7" fill="#ffe6a0" opacity="0.7"/><rect x="502" y="860" width="5" height="7" fill="#ffe6a0" opacity="0.7"/><rect x="502" y="876" width="5" height="7" fill="#ffe6a0" opacity="0.7"/><rect x="502" y="892" width="5" height="7" fill="#ffe6a0" opacity="0.7"/><rect x="502" y="908" width="5" height="7" fill="#ffe6a0" opacity="0.7"/><rect x="538" y="776" width="52" height="154" fill="#7a3b6b" opacity="0.92"/><rect x="544" y="786" width="5" height="7" fill="#ffe6a0" opacity="0.7"/><rect x="544" y="802" width="5" height="7" fill="#ffe6a0" opacity="0.7"/><rect x="544" y="818" width="5" height="7" fill="#ffe6a0" opacity="0.7"/><rect x="544" y="834" width="5" height="7" fill="#ffe6a0" opacity="0.7"/><rect x="544" y="850" width="5" height="7" fill="#ffe6a0" opacity="0.7"/><rect x="544" y="866" width="5" height="7" fill="#ffe6a0" opacity="0.7"/><rect x="544" y="882" width="5" height="7" fill="#ffe6a0" opacity="0.7"/><rect x="544" y="898" width="5" height="7" fill="#ffe6a0" opacity="0.7"/><rect x="544" y="914" width="5" height="7" fill="#ffe6a0" opacity="0.7"/><rect x="602" y="844" width="58" height="86" fill="#7a3b6b" opacity="0.92"/><rect x="608" y="854" width="5" height="7" fill="#ffe6a0" opacity="0.7"/><rect x="608" y="870" width="5" height="7" fill="#ffe6a0" opacity="0.7"/><rect x="608" y="886" width="5" height="7" fill="#ffe6a0" opacity="0.7"/><rect x="608" y="902" width="5" height="7" fill="#ffe6a0" opacity="0.7"/><rect x="608" y="918" width="5" height="7" fill="#ffe6a0" opacity="0.7"/><rect x="672" y="834" width="38" height="96" fill="#7a3b6b" opacity="0.92"/><rect x="678" y="844" width="5" height="7" fill="#ffe6a0" opacity="0.7"/><rect x="678" y="860" width="5" height="7" fill="#ffe6a0" opacity="0.7"/><rect x="678" y="876" width="5" height="7" fill="#ffe6a0" opacity="0.7"/><rect x="678" y="892" width="5" height="7" fill="#ffe6a0" opacity="0.7"/><rect x="678" y="908" width="5" height="7" fill="#ffe6a0" opacity="0.7"/><rect x="722" y="784" width="48" height="146" fill="#7a3b6b" opacity="0.92"/><rect x="728" y="794" width="5" height="7" fill="#ffe6a0" opacity="0.7"/><rect x="728" y="810" width="5" height="7" fill="#ffe6a0" opacity="0.7"/><rect x="728" y="826" width="5" height="7" fill="#ffe6a0" opacity="0.7"/><rect x="728" y="842" width="5" height="7" fill="#ffe6a0" opacity="0.7"/><rect x="728" y="858" width="5" height="7" fill="#ffe6a0" opacity="0.7"/><rect x="728" y="874" width="5" height="7" fill="#ffe6a0" opacity="0.7"/><rect x="728" y="890" width="5" height="7" fill="#ffe6a0" opacity="0.7"/><rect x="728" y="906" width="5" height="7" fill="#ffe6a0" opacity="0.7"/><rect x="782" y="754" width="26" height="176" fill="#7a3b6b" opacity="0.92"/><rect x="788" y="764" width="5" height="7" fill="#ffe6a0" opacity="0.7"/><rect x="788" y="780" width="5" height="7" fill="#ffe6a0" opacity="0.7"/><rect x="788" y="796" width="5" height="7" fill="#ffe6a0" opacity="0.7"/><rect x="788" y="812" width="5" height="7" fill="#ffe6a0" opacity="0.7"/><rect x="788" y="828" width="5" height="7" fill="#ffe6a0" opacity="0.7"/><rect x="788" y="844" width="5" height="7" fill="#ffe6a0" opacity="0.7"/><rect x="788" y="860" width="5" height="7" fill="#ffe6a0" opacity="0.7"/><rect x="788" y="876" width="5" height="7" fill="#ffe6a0" opacity="0.7"/><rect x="788" y="892" width="5" height="7" fill="#ffe6a0" opacity="0.7"/><rect x="788" y="908" width="5" height="7" fill="#ffe6a0" opacity="0.7"/><rect x="820" y="860" width="54" height="70" fill="#7a3b6b" opacity="0.92"/><rect x="826" y="870" width="5" height="7" fill="#ffe6a0" opacity="0.7"/><rect x="826" y="886" width="5" height="7" fill="#ffe6a0" opacity="0.7"/><rect x="826" y="902" width="5" height="7" fill="#ffe6a0" opacity="0.7"/><rect x="826" y="918" width="5" height="7" fill="#ffe6a0" opacity="0.7"/><rect x="886" y="752" width="40" height="178" fill="#7a3b6b" opacity="0.92"/><rect x="892" y="762" width="5" height="7" fill="#ffe6a0" opacity="0.7"/><rect x="892" y="778" width="5" height="7" fill="#ffe6a0" opacity="0.7"/><rect x="892" y="794" width="5" height="7" fill="#ffe6a0" opacity="0.7"/><rect x="892" y="810" width="5" height="7" fill="#ffe6a0" opacity="0.7"/><rect x="892" y="826" width="5" height="7" fill="#ffe6a0" opacity="0.7"/><rect x="892" y="842" width="5" height="7" fill="#ffe6a0" opacity="0.7"/><rect x="892" y="858" width="5" height="7" fill="#ffe6a0" opacity="0.7"/><rect x="892" y="874" width="5" height="7" fill="#ffe6a0" opacity="0.7"/><rect x="892" y="890" width="5" height="7" fill="#ffe6a0" opacity="0.7"/><rect x="892" y="906" width="5" height="7" fill="#ffe6a0" opacity="0.7"/><rect x="938" y="826" width="30" height="104" fill="#7a3b6b" opacity="0.92"/><rect x="944" y="836" width="5" height="7" fill="#ffe6a0" opacity="0.7"/><rect x="944" y="852" width="5" height="7" fill="#ffe6a0" opacity="0.7"/><rect x="944" y="868" width="5" height="7" fill="#ffe6a0" opacity="0.7"/><rect x="944" y="884" width="5" height="7" fill="#ffe6a0" opacity="0.7"/><rect x="944" y="900" width="5" height="7" fill="#ffe6a0" opacity="0.7"/><rect x="944" y="916" width="5" height="7" fill="#ffe6a0" opacity="0.7"/><rect x="980" y="730" width="52" height="200" fill="#7a3b6b" opacity="0.92"/><rect x="986" y="740" width="5" height="7" fill="#ffe6a0" opacity="0.7"/><rect x="986" y="756" width="5" height="7" fill="#ffe6a0" opacity="0.7"/><rect x="986" y="772" width="5" height="7" fill="#ffe6a0" opacity="0.7"/><rect x="986" y="788" width="5" height="7" fill="#ffe6a0" opacity="0.7"/><rect x="986" y="804" width="5" height="7" fill="#ffe6a0" opacity="0.7"/><rect x="986" y="820" width="5" height="7" fill="#ffe6a0" opacity="0.7"/><rect x="986" y="836" width="5" height="7" fill="#ffe6a0" opacity="0.7"/><rect x="986" y="852" width="5" height="7" fill="#ffe6a0" opacity="0.7"/><rect x="986" y="868" width="5" height="7" fill="#ffe6a0" opacity="0.7"/><rect x="986" y="884" width="5" height="7" fill="#ffe6a0" opacity="0.7"/><rect x="986" y="900" width="5" height="7" fill="#ffe6a0" opacity="0.7"/><rect x="986" y="916" width="5" height="7" fill="#ffe6a0" opacity="0.7"/><rect x="1044" y="798" width="58" height="132" fill="#7a3b6b" opacity="0.92"/><rect x="1050" y="808" width="5" height="7" fill="#ffe6a0" opacity="0.7"/><rect x="1050" y="824" width="5" height="7" fill="#ffe6a0" opacity="0.7"/><rect x="1050" y="840" width="5" height="7" fill="#ffe6a0" opacity="0.7"/><rect x="1050" y="856" width="5" height="7" fill="#ffe6a0" opacity="0.7"/><rect x="1050" y="872" width="5" height="7" fill="#ffe6a0" opacity="0.7"/><rect x="1050" y="888" width="5" height="7" fill="#ffe6a0" opacity="0.7"/><rect x="1050" y="904" width="5" height="7" fill="#ffe6a0" opacity="0.7"/><rect x="1050" y="920" width="5" height="7" fill="#ffe6a0" opacity="0.7"/>
  <!-- rastro de avião (motivo da marca) -->
  <path d="M96 360 q 360 -90 744 -36" stroke="#ffffff" stroke-width="5" stroke-dasharray="2 16" stroke-linecap="round" fill="none" opacity="0.7"/>
  <g transform="translate(840 322) rotate(18) scale(2.1)" fill="#ffffff" opacity="0.95">
    <path d="M2 12 L30 7 L34 0 L37 7 L46 5 L40 12 L46 19 L37 17 L34 24 L30 17 Z"/>
  </g>
  <rect width="1200" height="1500" fill="url(#fadebuenosaires)"/>
  <text x="600" y="1350" text-anchor="middle" font-family="Georgia, 'Times New Roman', serif" font-size="98.4" font-weight="700" fill="#ffffff">Buenos Aires</text>
  <text x="600" y="1408" text-anchor="middle" font-family="Arial, sans-serif" font-size="36" letter-spacing="4" fill="#ffffff" opacity="0.92">INTERNACIONAL · ARGENTINA</text>
</svg>